<svg xmlns="http://www.w3.org/2000/svg" viewBox="0 0 375.79 375.78">
  <g id="clock-ring" data-name="clock-ring">
    <path class="clock-ring" style="fill:#fca311" d="M365.85 169.19a1 1 0 0 0 1 .89h.1l6.92-.73a1 1 0 0 0-.2-2l-6.92.73a1 1 0 0 0-.9 1.11ZM362.93 150.69a1 1 0 0 0 1 .79h.21l6.79-1.45a1 1 0 0 0-.42-2l-6.79 1.45a1 1 0 0 0-.79 1.21ZM358.1 132.59a1 1 0 0 0 .95.69 1.12 1.12 0 0 0 .31-.05l6.59-2.14a1 1 0 1 0-.62-1.9l-6.59 2.14a1 1 0 0 0-.64 1.26ZM352.3 115.69a1 1 0 0 0 .41-.09l6.33-2.82a1 1 0 0 0-.82-1.82l-6.33 2.82a1 1 0 0 0 .41 1.91ZM349.25 93.57l-10.37 6-3.24 1.87a1 1 0 0 0 1 1.74l13.61-7.86a1.12 1.12 0 0 0 .3-.27 1 1 0 0 0 .07-1.1 1 1 0 0 0-1.37-.38ZM333.46 83.13a1 1 0 0 0 .59-.19l5.63-4.09a1 1 0 0 0-1.18-1.62l-5.63 4.09a1 1 0 0 0-.22 1.4 1 1 0 0 0 .81.41ZM326.11 62.09l-5.18 4.67a1 1 0 0 0-.07 1.41 1 1 0 0 0 .74.33 1 1 0 0 0 .67-.26l5.18-4.67a1 1 0 1 0-1.34-1.48ZM312.21 48.33l-4.67 5.18a1 1 0 0 0 .07 1.41 1 1 0 0 0 .67.26 1 1 0 0 0 .74-.33l4.67-5.18a1 1 0 0 0-1.48-1.34ZM296.94 36.1l-4.09 5.64a1 1 0 0 0 .81 1.59 1 1 0 0 0 .81-.41l4.09-5.64a1 1 0 1 0-1.62-1.18ZM264.32 16.24a1 1 0 0 0-1.32.5l-2.82 6.34a1 1 0 0 0 .5 1.32 1 1 0 0 0 .41.09 1 1 0 0 0 .91-.59l2.82-6.34a1 1 0 0 0-.5-1.32ZM246 9.19a1 1 0 0 0-1.26.64l-2.15 6.6a1 1 0 0 0 .64 1.26 1.12 1.12 0 0 0 .31 0 1 1 0 0 0 .95-.69l2.15-6.6a1 1 0 0 0-.64-1.21ZM227 4.1a1 1 0 0 0-1.19.77l-1.45 6.8a1 1 0 0 0 .77 1.19h.21a1 1 0 0 0 1-.79l1.45-6.8A1 1 0 0 0 227 4.1ZM207.53 1a1 1 0 0 0-1.09.89l-.73 6.93a1 1 0 0 0 .89 1.09h.1a1 1 0 0 0 1-.9l.73-6.93a1 1 0 0 0-.9-1.08ZM168.25 1a1 1 0 0 0-.88 1.09l.73 6.94a1 1 0 0 0 1 .89h.1a1 1 0 0 0 .89-1.09l-.73-6.93a1 1 0 0 0-1.11-.9ZM150 4.87a1 1 0 0 0-2 .42l1.45 6.8a1 1 0 0 0 1 .79h.21a1 1 0 0 0 .77-1.19ZM131.09 9.83a1 1 0 1 0-1.9.62l2.14 6.6a1 1 0 0 0 .95.69 1.12 1.12 0 0 0 .31 0 1 1 0 0 0 .64-1.26ZM113.8 23.9a1 1 0 0 0 .91.59 1 1 0 0 0 .41-.09 1 1 0 0 0 .5-1.32l-2.83-6.34a1 1 0 1 0-1.82.82ZM78.85 36.1a1 1 0 1 0-1.62 1.18l4.1 5.64a1 1 0 0 0 .81.41 1 1 0 0 0 .86-1.59ZM66.77 54.86a1 1 0 0 0 .74.33 1 1 0 0 0 .67-.26 1 1 0 0 0 .07-1.41l-4.67-5.19a1 1 0 1 0-1.48 1.34ZM53.52 68.25a1 1 0 0 0 .67.26 1 1 0 0 0 .74-.33 1 1 0 0 0-.07-1.41l-5.19-4.68a1 1 0 0 0-1.34 1.48ZM41.74 83a1 1 0 0 0 .59.19 1 1 0 0 0 .81-.41 1 1 0 0 0-.22-1.4l-5.64-4.1a1 1 0 1 0-1.18 1.62ZM23.91 113.79 17.57 111a1 1 0 0 0-.82 1.82l6.34 2.83a1 1 0 0 0 .41.09 1 1 0 0 0 .41-1.91ZM9.84 131.09l6.6 2.14a1.12 1.12 0 0 0 .31.05 1 1 0 0 0 .31-1.95l-6.6-2.14a1 1 0 0 0-.62 1.9ZM4.87 150l6.81 1.45h.21a1 1 0 0 0 .21-2L5.29 148a1 1 0 1 0-.42 2ZM1.92 169.34l6.94.73H9a1 1 0 0 0 .1-2l-6.94-.73a1 1 0 1 0-.2 2ZM14.94 206.07a1 1 0 0 0-1.1-.89l-11.92 1.25a1 1 0 0 0 .1 2h.11l11.92-1.25a1 1 0 0 0 .89-1.11ZM12.87 225.09a1 1 0 0 0-1.19-.77l-6.81 1.45a1 1 0 0 0 .21 2h.21l6.81-1.45a1 1 0 0 0 .77-1.23ZM17.7 243.19a1 1 0 0 0-1.26-.64l-6.6 2.14a1 1 0 0 0 .31 1.95 1.12 1.12 0 0 0 .31 0l6.6-2.14a1 1 0 0 0 .64-1.31ZM23.09 260.17 16.75 263a1 1 0 0 0 .41 1.91 1 1 0 0 0 .41-.09l6.34-2.82a1 1 0 1 0-.82-1.82ZM41.75 292.83l-5.65 4.1a1 1 0 0 0-.22 1.4 1 1 0 0 0 .81.41 1 1 0 0 0 .59-.19l5.65-4.1a1 1 0 1 0-1.18-1.62ZM53.53 307.53l-5.2 4.68a1 1 0 0 0-.07 1.41 1 1 0 0 0 .74.38 1 1 0 0 0 .67-.26l5.2-4.68a1 1 0 1 0-1.34-1.48ZM66.78 320.92l-4.68 5.19a1 1 0 0 0 .07 1.41 1 1 0 0 0 .67.26 1 1 0 0 0 .74-.33l4.68-5.19a1 1 0 0 0-1.48-1.34ZM81.33 332.86l-4.1 5.64a1 1 0 0 0 .81 1.59 1 1 0 0 0 .81-.41L83 334a1 1 0 0 0-1.62-1.18ZM115.12 351.37a1 1 0 0 0-1.32.5l-2.8 6.35a1 1 0 0 0 .5 1.32 1 1 0 0 0 .41.09 1 1 0 0 0 .91-.59l2.83-6.35a1 1 0 0 0-.53-1.32ZM132.59 358.09a1 1 0 0 0-1.26.64l-2.14 6.6a1 1 0 0 0 .64 1.26 1.12 1.12 0 0 0 .31.05 1 1 0 0 0 1-.69l2.14-6.6a1 1 0 0 0-.69-1.26ZM150.69 362.92a1 1 0 0 0-1.19.77l-1.45 6.8a1 1 0 0 0 .77 1.19h.21a1 1 0 0 0 1-.79l1.45-6.8a1 1 0 0 0-.79-1.17ZM169.19 365.84a1 1 0 0 0-1.09.89l-.73 6.93a1 1 0 0 0 .88 1.09h.11a1 1 0 0 0 1-.9l.73-6.93a1 1 0 0 0-.9-1.08ZM206.6 365.84a1 1 0 0 0-.89 1.09l.73 6.93a1 1 0 0 0 1 .9h.1a1 1 0 0 0 .89-1.09l-.73-6.93a1 1 0 0 0-1.1-.9ZM226.28 363.69a1 1 0 1 0-2 .42l1.45 6.8a1 1 0 0 0 1 .79h.21a1 1 0 0 0 .77-1.19ZM244.45 358.73a1 1 0 1 0-1.9.62l2.15 6.6a1 1 0 0 0 1 .69 1.12 1.12 0 0 0 .31-.05 1 1 0 0 0 .64-1.26ZM262 351.88a1 1 0 0 0-1.82.82L263 359a1 1 0 0 0 .91.59 1 1 0 0 0 .41-.09 1 1 0 0 0 .5-1.32ZM276.22 338.87l-1.86-3.22a1 1 0 1 0-1.74 1l7.86 13.61a1 1 0 0 0 1.37.37 1 1 0 0 0 .37-1.37ZM294.47 332.86a1 1 0 0 0-1.62 1.18l4.09 5.64a1 1 0 0 0 .81.41 1 1 0 0 0 .81-1.59ZM309 320.92a1 1 0 1 0-1.48 1.34l4.67 5.19a1 1 0 0 0 .74.33 1 1 0 0 0 .67-.26 1 1 0 0 0 .07-1.41ZM322.26 307.54a1 1 0 0 0-1.34 1.48l5.19 4.67a1 1 0 0 0 .67.26 1 1 0 0 0 .74-.33 1 1 0 0 0-.07-1.41ZM334 292.84a1 1 0 1 0-1.18 1.62l5.64 4.09a1 1 0 0 0 .59.19 1 1 0 0 0 .81-.41 1 1 0 0 0-.22-1.4ZM350.25 280.47l-10.37-6-3.21-1.86a1 1 0 0 0-1 1.74l13.61 7.86a1 1 0 0 0 1.37-.37 1 1 0 0 0-.4-1.37ZM359 263l-6.34-2.82a1 1 0 0 0-.82 1.82l6.34 2.82a1 1 0 0 0 .41.09A1 1 0 0 0 359 263ZM366 244.69l-6.59-2.14a1 1 0 0 0-.62 1.9l6.59 2.14a1.12 1.12 0 0 0 .31 0 1 1 0 0 0 .31-1.95ZM370.91 225.77l-6.79-1.45a1 1 0 0 0-.42 2l6.79 1.45h.21a1 1 0 0 0 .21-2ZM373.86 206.44l-6.92-.73a1 1 0 1 0-.2 2l6.92.73h.1a1 1 0 0 0 .1-2ZM374.79 186.89h-15.74a1 1 0 0 0 0 2h15.74a1 1 0 1 0 0-2ZM273 40.51a1 1 0 0 0 1.37-.37l4.36-7.56 3.48-6a.89.89 0 0 0 .12-.38 1 1 0 0 0-.49-1 1.17 1.17 0 0 0-.2-.06 1 1 0 0 0-1.17.43l-7.86 13.61a1 1 0 0 0 .39 1.33ZM187.89 17.73a1 1 0 0 0 1-1V1a1 1 0 0 0-2 0v15.73a1 1 0 0 0 1 1ZM101.32 35.92l-6-10.37a1 1 0 0 0-1.32-.39 1 1 0 0 0-.3.27 1 1 0 0 0-.07 1.1l7.86 13.61a1 1 0 0 0 1.74-1ZM25.54 95.31l13.61 7.86a1 1 0 1 0 1-1.74l-3.22-1.86-10.37-6a1 1 0 0 0-1.36.37 1 1 0 0 0 .34 1.37ZM17.74 187.89a1 1 0 0 0-1-1H1a1 1 0 0 0 0 2h15.74a1 1 0 0 0 1-1ZM40.52 273a1 1 0 0 0-1.37-.37l-3.22 1.87-10.37 6a1 1 0 0 0-.3.27 1 1 0 0 0 1.3 1.47l13.61-7.86a1 1 0 0 0 .35-1.38ZM102.8 335.26a1 1 0 0 0-1.37.37l-7.85 13.61a1 1 0 0 0 1.74 1l.21-.37 5.78-10 1.85-3.2a1 1 0 0 0-.36-1.41ZM188.89 359a1 1 0 0 0-2 0v15.74a1 1 0 0 0 1 1 1 1 0 0 0 .71-.3 1 1 0 0 0 .29-.7V359Z"/>
  </g>
</svg>
